<?xml version="1.0" encoding="UTF-8"?>
<svg id="Layer_2" xmlns="http://www.w3.org/2000/svg" xmlns:xlink="http://www.w3.org/1999/xlink" viewBox="0 0 1387.99 1604.4">
  <defs>
    <style>
      .cls-1 {
        clip-rule: evenodd;
      }

      .cls-2 {
        fill-rule: evenodd;
      }

      .cls-3 {
        clip-path: url(#clippath);
      }
    </style>
    <clipPath id="clippath">
      <path class="cls-1" d="M1180.82,1510l-135.8-283.11c1.15,0,2.34-1.15,4.64-2.3l176.04,258.95c-14.94,9.19-29.89,18.4-44.88,26.45h0ZM1111.79,399.37l82.86-121.98c4.6,3.45,8.05,6.9,12.65,10.35l-95.51,111.64ZM1194.66,1327.01l-82.86-122,95.51,111.66c-4.6,3.45-8.05,6.9-12.65,10.35h0ZM1045.02,1411.03l-48.33-139.25,63.32,132.35c-4.64,2.3-9.24,4.6-14.99,6.9h0ZM879.32,1452.46l-10.39-147.3,26.49,145c-4.6,1.15-10.39,2.3-16.1,2.3h0ZM708.99,1450.16l26.44-145-10.35,147.3c-5.75,0-11.5-1.15-16.1-2.3h0ZM544.4,1404.13l63.28-132.35-48.33,139.25c-5.75-2.3-10.35-4.6-14.95-6.9h0ZM397.06,1316.66l96.7-111.66-84.05,122c-4.6-3.45-8.05-6.9-12.65-10.35h0ZM277.35,1194.66l122.01-82.87-111.62,95.52c-3.45-4.6-6.9-8.05-10.39-12.65h0ZM193.38,1045.06l139.25-48.33-132.35,63.28c-2.3-4.6-4.6-9.19-6.9-14.94h0ZM151.9,879.32l147.34-10.35-145.04,26.45c-1.11-4.6-2.3-10.35-2.3-16.1h0ZM154.2,708.98l145.04,26.47-147.34-10.37c0-5.75,1.18-11.5,2.3-16.1h0ZM200.27,544.4l132.35,63.3-139.25-48.35c2.3-5.75,4.6-10.35,6.9-14.94h0ZM287.74,397.07l111.62,96.69-122.01-84.02c3.49-4.6,6.94-8.06,10.39-12.67h0ZM409.71,277.39l82.87,121.98-95.51-111.64c4.6-3.45,8.05-6.9,12.65-10.35h0ZM559.35,193.37l48.33,139.25-63.28-132.35c4.6-2.3,9.2-4.6,14.95-6.9h0ZM725.08,151.94l10.35,147.3-26.44-145c4.6-1.15,10.35-2.3,16.1-2.3h0ZM895.42,154.24l-26.49,145,10.39-147.3c5.71,0,11.5,1.15,16.1,2.3h0ZM1060.01,200.27l-63.32,132.35,48.33-139.25c5.75,2.3,10.35,4.6,14.99,6.9h0ZM1146.33,454.62l203.72-238.25c13.8,12.67,25.3,25.33,37.95,37.98l-238.22,203.73c-1.14-1.15-2.3-2.3-3.45-3.45h0ZM1225.71,120.85l-176.04,258.95c-2.3-1.15-3.49-2.3-4.64-2.3l135.8-283.13c14.99,8.05,29.94,17.27,44.88,26.47h0ZM1034.67,34.53l-103.56,295.79c-1.15,0-3.49-1.15-4.6-1.15l57.53-308.44c17.25,4.6,34.54,9.2,50.63,13.8h0ZM828.65,0l-24.15,313.06h-4.64L775.72,0h52.93ZM620.33,20.73l57.57,308.44c-1.15,0-3.45,1.15-4.6,1.15l-103.6-295.79c16.14-4.6,33.39-9.2,50.63-13.8h0ZM423.55,94.38l136.95,283.13c-2.3,0-3.45,1.15-5.76,2.3L378.66,120.85c14.94-9.19,29.93-18.42,44.89-26.47h0ZM254.36,216.37l203.72,238.25c-1.15,1.15-2.3,2.3-3.49,3.45l-238.22-203.73c12.65-12.65,25.34-25.31,37.99-37.98h0ZM120.86,378.65l258.95,176.09c-1.15,2.3-2.3,3.45-2.3,5.75L94.37,424.69c8.05-16.1,17.25-31.07,26.49-46.04h0ZM34.53,569.71l295.8,103.58c0,1.15-1.15,3.45-1.15,4.6l-308.44-57.53c4.6-17.29,9.2-34.53,13.79-50.65h0ZM0,775.73l313.04,24.17v4.6L0,828.69v-52.96h0ZM1350.05,1387.99l-203.72-238.22c1.15-1.15,2.3-2.3,3.45-3.45l238.22,203.73c-12.65,13.79-24.15,25.29-37.95,37.94h0ZM20.74,984.04l308.44-57.53c0,1.15,1.15,3.45,1.15,4.6l-295.8,103.56c-4.6-16.1-9.2-33.34-13.79-50.63h0ZM94.37,1180.86l283.14-135.8c0,1.15,1.15,2.29,2.3,4.6l-258.95,176.09c-9.24-14.99-18.44-29.94-26.49-44.88h0ZM216.37,1350.05l238.22-203.73c1.18,1.15,2.33,2.3,3.49,3.45l-203.72,238.22c-12.65-12.65-25.34-24.15-37.99-37.94h0ZM378.66,1483.55l176.08-258.95c2.3,1.15,3.45,2.3,5.76,2.3l-136.95,283.11c-14.95-8.05-29.94-17.25-44.89-26.45h0ZM569.69,1569.87l103.6-295.79c1.15,1.15,3.45,1.15,4.6,1.15l-57.57,308.44c-17.25-3.45-34.49-8.05-50.63-13.8h0ZM775.72,1604.4l24.15-313.07h4.64l24.15,313.07h-52.93ZM984.04,1583.67l-57.53-308.44c1.11,0,3.45,0,4.6-1.15l103.56,295.79c-16.1,5.75-33.39,10.35-50.63,13.8h0Z"/>
    </clipPath>
  </defs>
  <g id="Layer_1-2" data-name="Layer_1">
    <g>
      <path d="M731.76,476.58h141.41l247.47,651.23h-139.55l-61.4-162.8h-233.52l-62.33,162.8h-139.55l247.47-651.23ZM866.66,825.46l-64.19-167.46-63.27,167.46h127.46Z"/>
      <g>
        <path class="cls-2" d="M1180.82,1510l-135.8-283.11c1.15,0,2.34-1.15,4.64-2.3l176.04,258.95c-14.94,9.19-29.89,18.4-44.88,26.45h0ZM1111.79,399.37l82.86-121.98c4.6,3.45,8.05,6.9,12.65,10.35l-95.51,111.64ZM1194.66,1327.01l-82.86-122,95.51,111.66c-4.6,3.45-8.05,6.9-12.65,10.35h0ZM1045.02,1411.03l-48.33-139.25,63.32,132.35c-4.64,2.3-9.24,4.6-14.99,6.9h0ZM879.32,1452.46l-10.39-147.3,26.49,145c-4.6,1.15-10.39,2.3-16.1,2.3h0ZM708.99,1450.16l26.44-145-10.35,147.3c-5.75,0-11.5-1.15-16.1-2.3h0ZM544.4,1404.13l63.28-132.35-48.33,139.25c-5.75-2.3-10.35-4.6-14.95-6.9h0ZM397.06,1316.66l96.7-111.66-84.05,122c-4.6-3.45-8.05-6.9-12.65-10.35h0ZM277.35,1194.66l122.01-82.87-111.62,95.52c-3.45-4.6-6.9-8.05-10.39-12.65h0ZM193.38,1045.06l139.25-48.33-132.35,63.28c-2.3-4.6-4.6-9.19-6.9-14.94h0ZM151.9,879.32l147.34-10.35-145.04,26.45c-1.11-4.6-2.3-10.35-2.3-16.1h0ZM154.2,708.98l145.04,26.47-147.34-10.37c0-5.75,1.18-11.5,2.3-16.1h0ZM200.27,544.4l132.35,63.3-139.25-48.35c2.3-5.75,4.6-10.35,6.9-14.94h0ZM287.74,397.07l111.62,96.69-122.01-84.02c3.49-4.6,6.94-8.06,10.39-12.67h0ZM409.71,277.39l82.87,121.98-95.51-111.64c4.6-3.45,8.05-6.9,12.65-10.35h0ZM559.35,193.37l48.33,139.25-63.28-132.35c4.6-2.3,9.2-4.6,14.95-6.9h0ZM725.08,151.94l10.35,147.3-26.44-145c4.6-1.15,10.35-2.3,16.1-2.3h0ZM895.42,154.24l-26.49,145,10.39-147.3c5.71,0,11.5,1.15,16.1,2.3h0ZM1060.01,200.27l-63.32,132.35,48.33-139.25c5.75,2.3,10.35,4.6,14.99,6.9h0ZM1146.33,454.62l203.72-238.25c13.8,12.67,25.3,25.33,37.95,37.98l-238.22,203.73c-1.14-1.15-2.3-2.3-3.45-3.45h0ZM1225.71,120.85l-176.04,258.95c-2.3-1.15-3.49-2.3-4.64-2.3l135.8-283.13c14.99,8.05,29.94,17.27,44.88,26.47h0ZM1034.67,34.53l-103.56,295.79c-1.15,0-3.49-1.15-4.6-1.15l57.53-308.44c17.25,4.6,34.54,9.2,50.63,13.8h0ZM828.65,0l-24.15,313.06h-4.64L775.72,0h52.93ZM620.33,20.73l57.57,308.44c-1.15,0-3.45,1.15-4.6,1.15l-103.6-295.79c16.14-4.6,33.39-9.2,50.63-13.8h0ZM423.55,94.38l136.95,283.13c-2.3,0-3.45,1.15-5.76,2.3L378.66,120.85c14.94-9.19,29.93-18.42,44.89-26.47h0ZM254.36,216.37l203.72,238.25c-1.15,1.15-2.3,2.3-3.49,3.45l-238.22-203.73c12.65-12.65,25.34-25.31,37.99-37.98h0ZM120.86,378.65l258.95,176.09c-1.15,2.3-2.3,3.45-2.3,5.75L94.37,424.69c8.05-16.1,17.25-31.07,26.49-46.04h0ZM34.53,569.71l295.8,103.58c0,1.15-1.15,3.45-1.15,4.6l-308.44-57.53c4.6-17.29,9.2-34.53,13.79-50.65h0ZM0,775.73l313.04,24.17v4.6L0,828.69v-52.96h0ZM1350.05,1387.99l-203.72-238.22c1.15-1.15,2.3-2.3,3.45-3.45l238.22,203.73c-12.65,13.79-24.15,25.29-37.95,37.94h0ZM20.74,984.04l308.44-57.53c0,1.15,1.15,3.45,1.15,4.6l-295.8,103.56c-4.6-16.1-9.2-33.34-13.79-50.63h0ZM94.37,1180.86l283.14-135.8c0,1.15,1.15,2.29,2.3,4.6l-258.95,176.09c-9.24-14.99-18.44-29.94-26.49-44.88h0ZM216.37,1350.05l238.22-203.73c1.18,1.15,2.33,2.3,3.49,3.45l-203.72,238.22c-12.65-12.65-25.34-24.15-37.99-37.94h0ZM378.66,1483.55l176.08-258.95c2.3,1.15,3.45,2.3,5.76,2.3l-136.95,283.11c-14.95-8.05-29.94-17.25-44.89-26.45h0ZM569.69,1569.87l103.6-295.79c1.15,1.15,3.45,1.15,4.6,1.15l-57.57,308.44c-17.25-3.45-34.49-8.05-50.63-13.8h0ZM775.72,1604.4l24.15-313.07h4.64l24.15,313.07h-52.93ZM984.04,1583.67l-57.53-308.44c1.11,0,3.45,0,4.6-1.15l103.56,295.79c-16.1,5.75-33.39,10.35-50.63,13.8h0Z"/>
        <g class="cls-3">
          <polygon class="cls-2" points="1825.37 1216.54 1621.65 1309.76 958.7 -148.45 1162.42 -241.69 1825.37 1216.54"/>
          <polygon class="cls-2" points="1625.1 1307.46 1615.86 1312.06 952.95 -146.16 962.19 -149.6 1625.1 1307.46"/>
          <polygon class="cls-2" points="1618.2 1310.91 1608.96 1314.36 946.05 -142.7 955.25 -147.31 1618.2 1310.91"/>
          <polygon class="cls-2" points="1612.46 1313.21 1603.21 1317.81 940.3 -140.41 949.5 -143.85 1612.46 1313.21"/>
          <polygon class="cls-2" points="1606.67 1316.66 1597.47 1320.11 934.55 -136.95 943.76 -141.56 1606.67 1316.66"/>
          <polygon class="cls-2" points="1599.77 1318.96 1591.72 1323.56 928.8 -134.66 938.01 -139.25 1599.77 1318.96"/>
          <polygon class="cls-2" points="1594.02 1321.26 1584.82 1325.86 921.91 -132.35 931.11 -135.81 1594.02 1321.26"/>
          <polygon class="cls-2" points="1588.27 1324.71 1579.07 1328.16 916.12 -128.91 925.32 -133.51 1588.27 1324.71"/>
          <polygon class="cls-2" points="1582.52 1327.01 1573.28 1331.61 910.37 -126.59 919.61 -130.06 1582.52 1327.01"/>
          <polygon class="cls-2" points="1575.62 1330.46 1567.57 1333.91 904.62 -123.14 913.82 -127.76 1575.62 1330.46"/>
          <polygon class="cls-2" points="1569.87 1332.76 1560.63 1337.36 897.72 -120.84 906.92 -125.43 1569.87 1332.76"/>
          <polygon class="cls-2" points="1564.08 1335.06 1554.88 1339.7 891.97 -118.53 901.17 -121.99 1564.08 1335.06"/>
          <polygon class="cls-2" points="1558.33 1338.51 1549.13 1342 886.22 -115.09 895.42 -119.69 1558.33 1338.51"/>
          <polygon class="cls-2" points="1551.44 1340.81 1542.23 1345.44 880.43 -112.79 889.67 -116.24 1551.44 1340.81"/>
          <polygon class="cls-2" points="1545.68 1343.11 1536.48 1347.75 873.53 -109.32 882.74 -113.94 1545.68 1343.11"/>
          <polygon class="cls-2" points="1539.93 1346.6 1530.7 1350.05 867.78 -107.02 877.02 -111.64 1539.93 1346.6"/>
          <polygon class="cls-2" points="1534.18 1348.9 1524.99 1353.5 862.04 -104.72 871.23 -108.17 1534.18 1348.9"/>
          <polygon class="cls-2" points="1527.29 1352.34 1518.05 1355.8 856.29 -101.27 864.33 -105.87 1527.29 1352.34"/>
          <polygon class="cls-2" points="1521.49 1354.65 1512.3 1359.24 849.39 -98.97 858.58 -102.42 1521.49 1354.65"/>
          <polygon class="cls-2" points="1515.75 1356.94 1506.55 1361.55 843.64 -96.67 852.83 -100.12 1515.75 1356.94"/>
          <polygon class="cls-2" points="1510 1360.4 1500.8 1363.84 837.85 -93.22 847.08 -97.82 1510 1360.4"/>
          <polygon class="cls-2" points="1503.1 1362.7 1493.9 1367.3 832.14 -90.92 840.15 -94.37 1503.1 1362.7"/>
          <polygon class="cls-2" points="1497.35 1366.14 1488.15 1369.59 825.2 -87.47 834.44 -92.07 1497.35 1366.14"/>
          <polygon class="cls-2" points="1491.6 1368.45 1482.4 1373.04 819.45 -85.17 828.65 -89.77 1491.6 1368.45"/>
          <polygon class="cls-2" points="1485.81 1370.74 1476.62 1375.34 813.7 -82.85 822.9 -86.32 1485.81 1370.74"/>
          <polygon class="cls-2" points="1478.91 1374.2 1469.72 1377.64 806.8 -79.4 816 -84 1478.91 1374.2"/>
          <polygon class="cls-2" points="1473.16 1376.49 1463.97 1381.09 801.05 -77.1 810.25 -80.55 1473.16 1376.49"/>
          <polygon class="cls-2" points="1467.41 1379.94 1458.22 1383.39 795.27 -73.66 804.5 -78.25 1467.41 1379.94"/>
          <polygon class="cls-2" points="1460.51 1382.24 1452.47 1386.88 789.56 -71.35 798.75 -75.95 1460.51 1382.24"/>
          <polygon class="cls-2" points="1454.76 1384.58 1445.57 1389.18 782.62 -69.05 791.85 -72.51 1454.76 1384.58"/>
          <polygon class="cls-2" points="1449.02 1387.99 1439.82 1391.48 776.87 -65.59 786.06 -70.2 1449.02 1387.99"/>
          <polygon class="cls-2" points="1443.23 1390.33 1434.03 1394.93 771.12 -63.28 780.32 -66.74 1443.23 1390.33"/>
          <polygon class="cls-2" points="1436.33 1393.78 1428.28 1397.23 765.36 -59.84 774.57 -64.43 1436.33 1393.78"/>
          <polygon class="cls-2" points="1430.58 1396.08 1421.38 1400.68 758.47 -57.53 767.67 -62.13 1430.58 1396.08"/>
          <polygon class="cls-2" points="1424.83 1398.38 1415.63 1402.98 752.68 -55.24 761.92 -58.69 1424.83 1398.38"/>
          <polygon class="cls-2" points="1419.08 1401.83 1409.88 1405.28 746.97 -51.78 756.17 -56.38 1419.08 1401.83"/>
          <polygon class="cls-2" points="1412.18 1404.13 1402.99 1408.73 741.18 -49.48 749.27 -52.94 1412.18 1404.13"/>
          <polygon class="cls-2" points="1406.43 1407.58 1397.23 1411.03 734.29 -46.04 743.48 -50.63 1406.43 1407.58"/>
          <polygon class="cls-2" points="1400.64 1409.88 1391.44 1413.33 728.53 -43.73 737.73 -48.34 1400.64 1409.88"/>
          <polygon class="cls-2" points="1394.93 1412.18 1385.69 1416.78 722.78 -41.44 731.98 -44.89 1394.93 1412.18"/>
          <polygon class="cls-2" points="1387.99 1415.63 1378.79 1419.07 717.03 -37.97 725.08 -42.59 1387.99 1415.63"/>
          <polygon class="cls-2" points="1382.25 1417.93 1373.04 1422.53 710.09 -35.67 719.33 -39.12 1382.25 1417.93"/>
          <polygon class="cls-2" points="1376.5 1420.23 1367.3 1424.82 704.38 -32.22 713.59 -36.82 1376.5 1420.23"/>
          <polygon class="cls-2" points="1370.75 1423.68 1361.55 1427.16 698.59 -29.92 707.8 -34.52 1370.75 1423.68"/>
          <polygon class="cls-2" points="1363.85 1425.97 1354.65 1430.57 692.85 -27.62 700.9 -31.07 1363.85 1425.97"/>
          <polygon class="cls-2" points="1358.06 1429.47 1348.86 1432.91 685.95 -24.15 695.15 -28.77 1358.06 1429.47"/>
          <polygon class="cls-2" points="1352.35 1431.76 1343.11 1436.37 680.2 -21.85 689.4 -26.47 1352.35 1431.76"/>
          <polygon class="cls-2" points="1346.56 1434.06 1337.36 1438.66 674.45 -19.55 683.65 -23 1346.56 1434.06"/>
          <polygon class="cls-2" points="1339.66 1437.51 1330.46 1440.96 667.51 -16.1 676.75 -20.7 1339.66 1437.51"/>
          <polygon class="cls-2" points="1333.91 1439.81 1324.71 1444.41 661.8 -13.8 671 -17.25 1333.91 1439.81"/>
          <polygon class="cls-2" points="1328.16 1443.26 1318.96 1446.71 656.01 -10.35 665.21 -14.95 1328.16 1443.26"/>
          <polygon class="cls-2" points="1321.27 1445.56 1313.18 1450.16 650.26 -8.05 659.46 -12.65 1321.27 1445.56"/>
          <polygon class="cls-2" points="1315.48 1447.87 1306.27 1452.46 643.36 -5.75 652.57 -9.2 1315.48 1447.87"/>
          <polygon class="cls-2" points="1309.77 1451.31 1300.53 1454.76 637.61 -2.3 646.82 -6.9 1309.77 1451.31"/>
          <polygon class="cls-2" points="1303.98 1453.61 1294.78 1458.21 631.87 0 641.07 -3.45 1303.98 1453.61"/>
          <polygon class="cls-2" points="1297.08 1457.06 1289.03 1460.51 626.12 3.47 635.32 -1.15 1297.08 1457.06"/>
          <polygon class="cls-2" points="1291.33 1459.36 1282.13 1463.96 619.22 5.77 628.42 1.14 1291.33 1459.36"/>
          <polygon class="cls-2" points="1285.57 1461.66 1276.38 1466.26 613.43 8.06 622.63 4.62 1285.57 1461.66"/>
          <polygon class="cls-2" points="1279.83 1465.11 1270.59 1468.56 607.68 11.52 616.87 6.91 1279.83 1465.11"/>
          <polygon class="cls-2" points="1272.93 1467.41 1263.69 1472.05 601.93 13.81 609.98 10.37 1272.93 1467.41"/>
          <polygon class="cls-2" points="1267.18 1470.86 1257.94 1474.35 595.03 17.27 604.23 12.66 1267.18 1470.86"/>
          <polygon class="cls-2" points="1261.39 1473.16 1252.19 1477.8 589.28 19.58 598.48 14.96 1261.39 1473.16"/>
          <polygon class="cls-2" points="1255.64 1475.5 1246.44 1480.1 583.53 21.88 592.73 18.44 1255.64 1475.5"/>
          <polygon class="cls-2" points="1248.74 1478.95 1239.55 1482.4 577.74 25.33 585.84 20.73 1248.74 1478.95"/>
          <polygon class="cls-2" points="1242.99 1481.25 1233.8 1485.85 570.84 27.63 580.04 24.19 1242.99 1481.25"/>
          <polygon class="cls-2" points="1237.24 1483.55 1228.01 1488.15 565.1 31.08 574.33 26.48 1237.24 1483.55"/>
          <polygon class="cls-2" points="1231.49 1487 1222.3 1490.45 559.35 33.38 568.54 28.78 1231.49 1487"/>
          <polygon class="cls-2" points="1224.59 1489.3 1215.36 1493.89 553.6 35.68 561.64 32.23 1224.59 1489.3"/>
          <polygon class="cls-2" points="1218.81 1492.74 1209.61 1496.2 546.7 39.13 555.89 34.53 1218.81 1492.74"/>
          <polygon class="cls-2" points="1213.06 1495.05 1203.86 1499.64 540.95 41.43 550.15 37.98 1213.06 1495.05"/>
          <polygon class="cls-2" points="1206.16 1497.35 1198.11 1501.95 535.16 44.9 544.4 40.28 1206.16 1497.35"/>
          <polygon class="cls-2" points="1200.41 1500.79 1191.21 1504.25 528.26 47.2 537.46 42.58 1200.41 1500.79"/>
          <polygon class="cls-2" points="1194.66 1503.1 1185.42 1507.69 522.51 49.5 531.75 46.05 1194.66 1503.1"/>
          <polygon class="cls-2" points="1188.91 1506.54 1179.71 1510 516.76 52.95 525.96 48.35 1188.91 1506.54"/>
          <polygon class="cls-2" points="1182.01 1508.85 1173.92 1513.44 511.02 55.25 520.21 50.65 1182.01 1508.85"/>
          <polygon class="cls-2" points="1176.22 1511.15 1167.03 1515.75 504.11 57.55 513.31 54.1 1176.22 1511.15"/>
          <polygon class="cls-2" points="1170.47 1514.63 1161.28 1518.08 498.37 61.02 507.56 56.4 1170.47 1514.63"/>
          <polygon class="cls-2" points="1164.72 1516.94 1155.53 1521.53 492.57 63.32 501.81 59.85 1164.72 1516.94"/>
          <polygon class="cls-2" points="1157.82 1520.38 1149.77 1523.84 486.82 66.77 496.06 62.17 1157.82 1520.38"/>
          <polygon class="cls-2" points="1152.08 1522.69 1142.84 1527.28 479.93 69.07 489.16 64.47 1152.08 1522.69"/>
          <polygon class="cls-2" points="1146.33 1524.98 1137.12 1529.59 474.18 71.37 483.38 67.92 1146.33 1524.98"/>
          <polygon class="cls-2" points="1140.54 1528.43 1131.34 1531.88 468.43 74.81 477.63 70.22 1140.54 1528.43"/>
          <polygon class="cls-2" points="1133.64 1530.73 1124.44 1535.33 462.68 77.12 470.73 73.67 1133.64 1530.73"/>
          <polygon class="cls-2" points="1127.89 1534.18 1118.69 1537.63 455.78 80.56 464.98 75.97 1127.89 1534.18"/>
          <polygon class="cls-2" points="1122.14 1536.48 1112.94 1541.08 449.99 82.87 459.23 78.27 1122.14 1536.48"/>
          <polygon class="cls-2" points="1116.39 1538.78 1107.19 1543.38 444.24 85.17 453.48 81.71 1116.39 1538.78"/>
          <polygon class="cls-2" points="1109.49 1542.23 1100.25 1545.68 438.49 88.63 446.58 84.02 1109.49 1542.23"/>
          <polygon class="cls-2" points="1103.74 1544.53 1094.54 1549.13 431.59 90.94 440.79 87.46 1103.74 1544.53"/>
          <polygon class="cls-2" points="1097.95 1547.98 1088.75 1551.43 425.84 94.38 435.04 89.78 1097.95 1547.98"/>
          <polygon class="cls-2" points="1092.25 1550.28 1083 1553.73 420.09 96.68 429.29 92.09 1092.25 1550.28"/>
          <polygon class="cls-2" points="1085.31 1552.58 1076.1 1557.22 414.34 98.99 422.39 95.53 1085.31 1552.58"/>
          <polygon class="cls-2" points="1079.56 1556.03 1070.36 1559.52 407.4 102.43 416.65 97.84 1079.56 1556.03"/>
          <polygon class="cls-2" points="1073.81 1558.33 1064.61 1562.97 401.66 104.75 410.9 101.28 1073.81 1558.33"/>
          <polygon class="cls-2" points="1066.91 1560.67 1058.86 1565.27 395.91 108.2 405.11 103.58 1066.91 1560.67"/>
          <polygon class="cls-2" points="1061.16 1564.12 1051.96 1567.56 389.01 110.5 398.21 105.9 1061.16 1564.12"/>
          <polygon class="cls-2" points="1055.37 1566.42 1046.17 1571.02 383.26 112.8 392.46 109.35 1055.37 1566.42"/>
          <polygon class="cls-2" points="1049.66 1569.87 1040.42 1573.32 377.51 116.25 386.71 111.66 1049.66 1569.87"/>
          <polygon class="cls-2" points="1042.72 1572.17 1034.67 1576.77 371.76 118.55 380.96 115.1 1042.72 1572.17"/>
          <polygon class="cls-2" points="1036.97 1574.46 1027.77 1579.07 364.82 120.85 374.06 117.4 1036.97 1574.46"/>
          <polygon class="cls-2" points="1031.23 1577.92 1022.02 1581.36 359.07 124.3 368.31 119.7 1031.23 1577.92"/>
          <polygon class="cls-2" points="1025.47 1580.21 1016.27 1584.82 353.32 126.6 362.53 123.15 1025.47 1580.21"/>
          <polygon class="cls-2" points="1018.58 1583.67 1010.49 1587.11 347.57 130.05 356.77 125.45 1018.58 1583.67"/>
          <polygon class="cls-2" points="1012.78 1585.96 1003.59 1590.57 340.67 132.37 349.88 127.75 1012.78 1585.96"/>
          <polygon class="cls-2" points="1007.08 1588.26 997.84 1592.86 334.93 134.67 344.12 131.22 1007.08 1588.26"/>
          <polygon class="cls-2" points="1001.28 1591.71 992.09 1595.16 329.18 138.12 338.37 133.52 1001.28 1591.71"/>
          <polygon class="cls-2" points="994.39 1594.01 985.19 1598.61 323.43 140.42 331.48 136.97 994.39 1594.01"/>
          <polygon class="cls-2" points="988.64 1597.47 979.44 1600.91 316.53 143.87 325.73 139.27 988.64 1597.47"/>
          <polygon class="cls-2" points="982.89 1599.8 973.69 1604.4 310.74 146.17 319.94 141.57 982.89 1599.8"/>
          <polygon class="cls-2" points="977.14 1602.1 967.9 1606.7 304.99 148.49 314.19 145.02 977.14 1602.1"/>
          <polygon class="cls-2" points="970.2 1605.55 961 1609 299.24 151.94 307.29 147.34 970.2 1605.55"/>
          <polygon class="cls-2" points="964.49 1607.85 955.25 1612.45 292.34 154.24 301.54 150.79 964.49 1607.85"/>
          <polygon class="cls-2" points="958.7 1611.3 949.5 1614.75 286.59 157.69 295.79 153.09 958.7 1611.3"/>
          <polygon class="cls-2" points="952.95 1613.6 943.76 1618.2 280.84 159.99 290.04 155.38 952.95 1613.6"/>
          <polygon class="cls-2" points="946.05 1615.9 936.86 1620.5 273.94 162.28 283.14 158.84 946.05 1615.9"/>
          <polygon class="cls-2" points="940.3 1619.35 931.11 1622.8 268.16 165.74 277.35 161.14 940.3 1619.35"/>
          <polygon class="cls-2" points="934.55 1621.65 925.32 1626.25 262.41 168.03 271.6 164.59 934.55 1621.65"/>
          <polygon class="cls-2" points="927.61 1623.95 919.61 1628.55 256.66 171.48 265.85 166.89 927.61 1623.95"/>
          <polygon class="cls-2" points="921.91 1627.4 912.67 1630.85 249.76 173.8 258.95 169.18 921.91 1627.4"/>
          <polygon class="cls-2" points="916.12 1629.7 906.92 1634.3 244.01 176.1 253.21 172.64 916.12 1629.7"/>
          <polygon class="cls-2" points="910.37 1633.15 901.17 1636.6 238.26 179.56 247.46 174.95 910.37 1633.15"/>
          <polygon class="cls-2" points="903.47 1635.44 895.42 1640.05 232.47 181.85 241.71 178.4 903.47 1635.44"/>
          <polygon class="cls-2" points="897.72 1637.75 888.52 1642.38 225.57 185.3 234.77 180.7 897.72 1637.75"/>
          <polygon class="cls-2" points="891.97 1641.19 882.74 1644.69 219.82 187.6 229.02 183 891.97 1641.19"/>
          <polygon class="cls-2" points="886.22 1643.5 877.02 1648.13 214.07 189.92 223.27 186.45 886.22 1643.5"/>
          <polygon class="cls-2" points="879.32 1646.99 871.23 1650.44 208.32 193.37 217.52 188.75 879.32 1646.99"/>
          <polygon class="cls-2" points="873.53 1649.28 864.33 1653.88 201.43 195.67 210.62 191.07 873.53 1649.28"/>
          <polygon class="cls-2" points="867.78 1651.59 858.58 1656.18 195.67 197.97 204.87 194.52 867.78 1651.59"/>
          <polygon class="cls-2" points="862.04 1655.03 852.83 1658.49 189.88 201.42 199.12 196.82 862.04 1655.03"/>
          <polygon class="cls-2" points="855.14 1657.34 845.94 1661.93 184.13 203.72 192.18 200.27 855.14 1657.34"/>
          <polygon class="cls-2" points="849.39 1660.78 840.15 1664.24 177.23 207.17 186.44 202.57 849.39 1660.78"/>
          <polygon class="cls-2" points="843.64 1663.08 834.44 1667.68 171.48 209.47 180.69 204.87 843.64 1663.08"/>
          <polygon class="cls-2" points="837.85 1665.39 828.65 1669.98 165.74 211.77 174.94 208.32 837.85 1665.39"/>
          <polygon class="cls-2" points="830.95 1668.83 821.75 1672.29 159.99 215.22 168.04 210.62 830.95 1668.83"/>
          <polygon class="cls-2" points="825.2 1671.13 816 1675.73 153.09 217.53 162.29 214.07 825.2 1671.13"/>
          <polygon class="cls-2" points="819.45 1674.58 810.25 1678.03 147.3 220.99 156.54 216.37 819.45 1674.58"/>
          <polygon class="cls-2" points="813.7 1676.88 804.5 1681.48 141.55 223.28 150.79 218.69 813.7 1676.88"/>
          <polygon class="cls-2" points="806.8 1679.18 797.56 1683.78 134.65 225.59 143.85 222.14 806.8 1679.18"/>
          <polygon class="cls-2" points="801.05 1682.63 791.85 1686.08 128.9 229.04 138.1 224.43 801.05 1682.63"/>
          <polygon class="cls-2" points="795.27 1684.97 786.06 1689.57 123.15 231.34 132.35 227.89 795.27 1684.97"/>
          <polygon class="cls-2" points="788.37 1688.38 780.32 1691.87 117.4 234.81 126.61 230.18 788.37 1688.38"/>
          <polygon class="cls-2" points="782.62 1690.72 773.42 1694.17 110.5 237.1 119.71 232.49 782.62 1690.72"/>
          <polygon class="cls-2" points="776.87 1693.02 767.67 1697.62 104.72 239.41 113.96 235.95 776.87 1693.02"/>
          <polygon class="cls-2" points="771.12 1696.47 761.92 1699.92 98.97 242.85 108.21 238.25 771.12 1696.47"/>
          <polygon class="cls-2" points="764.22 1698.77 756.17 1703.37 93.22 245.15 102.42 241.7 764.22 1698.77"/>
          <polygon class="cls-2" points="758.47 1701.07 749.27 1705.67 86.32 248.6 95.52 244 758.47 1701.07"/>
          <polygon class="cls-2" points="752.68 1704.52 743.48 1707.97 80.57 250.9 89.77 246.31 752.68 1704.52"/>
          <polygon class="cls-2" points="746.97 1706.82 737.73 1711.42 74.82 253.21 84.02 249.75 746.97 1706.82"/>
          <polygon class="cls-2" points="740.03 1710.26 730.83 1713.72 69.03 256.65 78.27 252.05 740.03 1710.26"/>
          <polygon class="cls-2" points="734.29 1712.57 725.08 1717.17 62.13 258.95 71.37 255.5 734.29 1712.57"/>
          <polygon class="cls-2" points="728.53 1714.87 719.33 1719.47 56.38 261.27 65.62 257.8 728.53 1714.87"/>
          <polygon class="cls-2" points="722.78 1718.32 713.59 1721.77 50.63 264.72 59.83 260.12 722.78 1718.32"/>
          <polygon class="cls-2" points="715.88 1720.62 706.69 1725.22 44.89 267.02 52.94 263.57 715.88 1720.62"/>
          <polygon class="cls-2" points="710.09 1724.07 700.9 1727.56 37.99 270.47 47.18 265.87 710.09 1724.07"/>
          <polygon class="cls-2" points="704.38 1726.37 695.15 1730.97 32.24 272.77 41.43 268.17 704.38 1726.37"/>
          <polygon class="cls-2" points="698.59 1728.66 689.4 1733.31 26.49 275.07 35.68 271.62 698.59 1728.66"/>
          <polygon class="cls-2" points="691.7 1732.16 682.5 1735.6 20.74 278.54 28.78 273.92 691.7 1732.16"/>
          <polygon class="cls-2" points="685.95 1734.46 676.75 1739.06 13.8 280.84 23.03 277.39 685.95 1734.46"/>
          <polygon class="cls-2" points="680.2 1737.91 671 1741.35 8.05 284.29 17.25 279.69 680.2 1737.91"/>
          <polygon class="cls-2" points="674.45 1740.21 665.21 1744.8 2.3 286.59 11.5 281.99 674.45 1740.21"/>
          <polygon class="cls-2" points="667.51 1742.5 658.31 1747.1 -4.6 288.89 4.6 285.44 667.51 1742.5"/>
          <polygon class="cls-2" points="661.8 1745.96 652.57 1749.4 -10.35 292.34 -1.15 287.74 661.8 1745.96"/>
          <polygon class="cls-2" points="656.01 1748.25 646.82 1752.85 -16.1 294.64 -6.9 291.18 656.01 1748.25"/>
          <polygon class="cls-2" points="649.11 1751.7 641.07 1755.15 -21.84 298.08 -12.65 293.49 649.11 1751.7"/>
          <polygon class="cls-2" points="643.36 1754 634.17 1758.6 -28.78 300.39 -19.55 295.79 643.36 1754"/>
          <polygon class="cls-2" points="637.61 1756.3 628.42 1760.9 -34.53 302.71 -25.34 299.23 637.61 1756.3"/>
          <polygon class="cls-2" points="631.87 1759.75 622.63 1763.2 -40.28 306.16 -31.09 301.54 631.87 1759.75"/>
          <polygon class="cls-2" points="624.93 1762.05 616.87 1766.65 -46.03 308.46 -36.83 305 624.93 1762.05"/>
          <polygon class="cls-2" points="619.22 1764.35 609.98 1768.95 -52.93 311.9 -43.73 307.31 619.22 1764.35"/>
          <polygon class="cls-2" points="613.43 1767.8 604.23 1771.25 -58.68 314.21 -49.48 309.61 613.43 1767.8"/>
          <polygon class="cls-2" points="607.68 1770.14 598.48 1774.74 -64.43 316.5 -55.23 313.06 607.68 1770.14"/>
          <polygon class="cls-2" points="600.78 1773.55 591.58 1777.04 -70.22 319.98 -62.13 315.36 600.78 1773.55"/>
          <polygon class="cls-2" points="595.03 1775.89 585.84 1780.49 -77.12 322.28 -67.92 318.82 595.03 1775.89"/>
          <polygon class="cls-2" points="589.28 1778.19 580.04 1782.79 -82.87 325.72 -73.67 321.13 589.28 1778.19"/>
          <polygon class="cls-2" points="583.53 1781.64 574.33 1785.09 -88.62 328.03 -79.42 323.42 583.53 1781.64"/>
          <polygon class="cls-2" points="576.63 1783.94 567.39 1788.54 -94.37 330.32 -86.32 326.87 576.63 1783.94"/>
          <polygon class="cls-2" points="570.84 1787.39 561.64 1790.83 -101.27 333.77 -92.07 329.17 570.84 1787.39"/>
          <polygon class="cls-2" points="565.1 1789.69 555.89 1794.29 -107.02 336.07 -97.82 331.47 565.1 1789.69"/>
          <polygon class="cls-2" points="559.35 1791.99 550.15 1796.58 -112.81 338.37 -103.6 334.92 559.35 1791.99"/>
          <polygon class="cls-2" points="552.45 1795.44 543.24 1798.89 -118.55 341.82 -110.5 337.22 552.45 1795.44"/>
          <polygon class="cls-2" points="546.7 1797.73 537.46 1802.33 -125.46 344.12 -116.25 340.67 546.7 1797.73"/>
          <polygon class="cls-2" points="540.95 1801.19 531.75 1804.63 -131.2 347.59 -122 342.97 540.95 1801.19"/>
          <polygon class="cls-2" points="535.16 1803.48 525.96 1808.09 -136.95 349.89 -127.75 345.27 535.16 1803.48"/>
          <polygon class="cls-2" points="528.26 1805.79 519.06 1810.38 -143.85 352.19 -134.65 348.74 528.26 1805.79"/>
          <polygon class="cls-2" points="522.51 1809.23 513.31 1812.73 -149.6 355.64 -140.4 351.04 522.51 1809.23"/>
          <polygon class="cls-2" points="516.76 1811.53 507.56 1816.13 -155.39 357.94 -146.19 354.49 516.76 1811.53"/>
          <polygon class="cls-2" points="509.86 1815.02 501.81 1818.47 -161.14 361.39 -151.9 356.79 509.86 1815.02"/>
          <polygon class="cls-2" points="504.11 1817.32 494.87 1821.92 -168.04 363.71 -158.84 359.09 504.11 1817.32"/>
          <polygon class="cls-2" points="498.37 1819.63 489.16 1824.22 -173.79 366.01 -164.59 362.56 498.37 1819.63"/>
          <polygon class="cls-2" points="492.57 1823.07 483.38 1826.52 -179.54 369.46 -170.33 364.86 492.57 1823.07"/>
          <polygon class="cls-2" points="485.68 1825.37 477.63 1829.97 -185.29 371.76 -176.09 368.31 485.68 1825.37"/>
          <polygon class="cls-2" points="479.93 1828.82 470.73 1832.27 -192.2 375.21 -182.98 370.61 479.93 1828.82"/>
          <polygon class="cls-2" points="474.18 1831.12 464.98 1834.57 -197.95 377.51 -188.73 372.9 474.18 1831.12"/>
          <polygon class="cls-2" points="468.43 1833.42 459.23 1838.02 -203.72 379.8 -194.51 376.36 468.43 1833.42"/>
          <polygon class="cls-2" points="461.53 1836.87 452.29 1840.32 -209.47 383.26 -201.42 378.65 461.53 1836.87"/>
          <polygon class="cls-2" points="455.78 1839.17 446.58 1843.77 -216.37 385.55 -207.17 382.11 455.78 1839.17"/>
          <polygon class="cls-2" points="449.99 1841.47 440.79 1846.07 -222.12 389.03 -212.92 384.4 449.99 1841.47"/>
          <polygon class="cls-2" points="444.24 1844.92 435.04 1848.37 -227.87 391.32 -218.67 386.7 444.24 1844.92"/>
          <polygon class="cls-2" points="437.34 1847.22 428.14 1851.82 -233.64 393.62 -225.57 390.18 437.34 1847.22"/>
          <polygon class="cls-2" points="431.59 1850.67 422.39 1854.12 -240.54 397.07 -231.32 392.47 431.59 1850.67"/>
          <polygon class="cls-2" points="425.84 1852.97 416.65 1857.61 -246.31 399.37 -237.09 395.93 425.84 1852.97"/>
          <polygon class="cls-2" points="420.09 1855.27 410.9 1859.91 -252.05 401.68 -242.86 398.22 420.09 1855.27"/>
          <polygon class="cls-2" points="413.19 1858.72 404 1862.21 -257.8 405.14 -249.76 400.52 413.19 1858.72"/>
          <polygon class="cls-2" points="407.4 1861.06 398.21 1865.66 -264.7 407.44 -255.51 403.97 407.4 1861.06"/>
          <polygon class="cls-2" points="401.66 1864.5 405.11 1862.21 -257.8 405.14 -261.26 406.29 401.66 1864.5"/>
        </g>
      </g>
    </g>
  </g>
</svg>